<?xml version="1.0" standalone="no"?>
<!DOCTYPE svg PUBLIC "-//W3C//DTD SVG 20010904//EN"
 "http://www.w3.org/TR/2001/REC-SVG-20010904/DTD/svg10.dtd">
<svg version="1.0" xmlns="http://www.w3.org/2000/svg"
 width="287.000000pt" height="285.000000pt" viewBox="0 0 287.000000 285.000000"
 preserveAspectRatio="xMidYMid meet">

<g transform="translate(0.000000,285.000000) scale(0.100000,-0.100000)"
fill="#000000" stroke="none">
<path d="M1314 2096 c-179 -44 -347 -161 -451 -315 -53 -80 -99 -204 -118
-318 -16 -93 -16 -108 -1 -201 28 -178 94 -316 208 -433 59 -62 146 -127 213
-162 49 -25 156 -57 190 -57 36 0 65 26 65 57 0 26 -12 35 -75 58 -283 102
-455 314 -481 595 -28 296 189 583 488 646 178 38 383 -24 513 -155 96 -97
144 -212 145 -348 0 -142 -97 -297 -227 -359 -61 -28 -182 -47 -233 -35 -92
21 -182 88 -223 166 -29 54 -31 183 -3 234 35 65 93 105 173 120 128 24 185
-97 100 -210 -50 -66 -57 -81 -46 -101 7 -12 21 -18 45 -18 71 0 124 46 155
135 35 99 8 208 -69 277 -123 111 -389 22 -479 -161 -25 -51 -28 -66 -28 -161
1 -101 2 -108 37 -175 45 -88 117 -157 206 -197 57 -26 83 -32 168 -36 167 -8
286 40 399 160 75 79 109 140 136 246 43 170 5 345 -111 498 -86 114 -243 214
-391 249 -76 18 -234 18 -305 1z"/>
</g>
</svg>
